# xmcd
#
# Track frame offsets: 
#        150
#        17822
#        32059
#        50630
#        78763
#        96045
#        116983
#        137113
#        159079
#        177736
#
# Disc length: 2592 seconds
#
# Revision: 1
# Processed by: cddbd v1.5.2PL0 Copyright (c) Steve Scherf et al.
# Submitted via: ExactAudioCopy v1.3
#
DISCID=7f0a1e0a
DTITLE=Jennifer Warnes - Another Time, Another Place
DYEAR=2018
DGENRE=Easy Listening
TTITLE0=Just Breathe
TTITLE1=Tomorrow Night
TTITLE2=Once I Was Loved
TTITLE3=So Sad
TTITLE4=I See Your Face Before Me
TTITLE5=I Am The Big Easy
TTITLE6=The Boys And Me
TTITLE7=Back Where I Started
TTITLE8=Freedom
TTITLE9=Why Worry
EXTD=
EXTT0=
EXTT1=
EXTT2=
EXTT3=
EXTT4=
EXTT5=
EXTT6=
EXTT7=
EXTT8=
EXTT9=
PLAYORDER=
